<?xml version="1.0" encoding="UTF-8" standalone="no"?>
<!-- Created with Inkscape (http://www.inkscape.org/) -->

<svg
   width="100mm"
   height="100mm"
   viewBox="0 0 100 100"
   version="1.1"
   id="svg1"
   xml:space="preserve"
   xmlns:inkscape="http://www.inkscape.org/namespaces/inkscape"
   xmlns:sodipodi="http://sodipodi.sourceforge.net/DTD/sodipodi-0.dtd"
   xmlns:xlink="http://www.w3.org/1999/xlink"
   xmlns="http://www.w3.org/2000/svg"
   xmlns:svg="http://www.w3.org/2000/svg"><sodipodi:namedview
     id="namedview1"
     pagecolor="#505050"
     bordercolor="#eeeeee"
     borderopacity="1"
     inkscape:showpageshadow="0"
     inkscape:pageopacity="0"
     inkscape:pagecheckerboard="0"
     inkscape:deskcolor="#505050"
     inkscape:document-units="mm" /><defs
     id="defs1"><linearGradient
       id="linearGradient10297"
       inkscape:collect="always"><stop
         style="stop-color:#f98007;stop-opacity:1;"
         offset="0"
         id="stop10297" /><stop
         style="stop-color:#faa805;stop-opacity:1;"
         offset="0.50409865"
         id="stop10299" /><stop
         style="stop-color:#fccc00;stop-opacity:1;"
         offset="0.66252053"
         id="stop10301" /><stop
         style="stop-color:#f9c729;stop-opacity:1;"
         offset="0.79474097"
         id="stop10300" /><stop
         style="stop-color:#f99c07;stop-opacity:1;"
         offset="1"
         id="stop10298" /></linearGradient><linearGradient
       id="linearGradient10295"
       inkscape:collect="always"><stop
         style="stop-color:#f90707;stop-opacity:1;"
         offset="0"
         id="stop10295" /><stop
         style="stop-color:#f98907;stop-opacity:1;"
         offset="1"
         id="stop10296" /></linearGradient><linearGradient
       id="linearGradient10293"
       inkscape:collect="always"><stop
         style="stop-color:#ffac14;stop-opacity:1;"
         offset="0"
         id="stop10293" /><stop
         style="stop-color:#ff3212;stop-opacity:1;"
         offset="1"
         id="stop10294" /></linearGradient><linearGradient
       id="linearGradient10291"
       inkscape:collect="always"><stop
         style="stop-color:#f98007;stop-opacity:1;"
         offset="0"
         id="stop10291" /><stop
         style="stop-color:#f9bf07;stop-opacity:1;"
         offset="1"
         id="stop10292" /></linearGradient><linearGradient
       id="linearGradient10289"
       inkscape:collect="always"><stop
         style="stop-color:#ff4212;stop-opacity:1;"
         offset="0"
         id="stop10289" /><stop
         style="stop-color:#ff8913;stop-opacity:1;"
         offset="1"
         id="stop10290" /></linearGradient><linearGradient
       inkscape:collect="always"
       xlink:href="#linearGradient10289"
       id="linearGradient10290"
       x1="31.416973"
       y1="73.79335"
       x2="56.806271"
       y2="35.435425"
       gradientUnits="userSpaceOnUse" /><linearGradient
       inkscape:collect="always"
       xlink:href="#linearGradient10291"
       id="linearGradient10292"
       x1="47.400944"
       y1="47.271786"
       x2="49.725784"
       y2="43.267891"
       gradientUnits="userSpaceOnUse" /><linearGradient
       inkscape:collect="always"
       xlink:href="#linearGradient10293"
       id="linearGradient10294"
       x1="63.158203"
       y1="51.275673"
       x2="49.596626"
       y2="62.770729"
       gradientUnits="userSpaceOnUse" /><linearGradient
       inkscape:collect="always"
       xlink:href="#linearGradient10295"
       id="linearGradient10296"
       x1="65.99968"
       y1="73.361679"
       x2="69.475853"
       y2="70.485626"
       gradientUnits="userSpaceOnUse" /><linearGradient
       inkscape:collect="always"
       xlink:href="#linearGradient10297"
       id="linearGradient10298"
       x1="75.073013"
       y1="76.493759"
       x2="78.810562"
       y2="74.542061"
       gradientUnits="userSpaceOnUse" /></defs><g
     inkscape:label="Layer 1"
     inkscape:groupmode="layer"
     id="layer1"><rect
       style="fill:#525969;fill-opacity:1;stroke:none;stroke-width:3.52336;stroke-opacity:0"
       id="rect10302"
       width="100"
       height="100"
       x="0"
       y="-1.7763568e-15"
       ry="15.114852"
       inkscape:export-filename="rect10302.svg"
       inkscape:export-xdpi="96"
       inkscape:export-ydpi="96" /><path
       style="fill:url(#linearGradient10290);fill-opacity:1;stroke:#535a6a;stroke-width:1.00012;stroke-opacity:0"
       d="m 60.185424,71.053504 c 0,0 -4.411882,1.870813 -6.758303,2.191882 -3.62255,0.495687 -7.443928,0.54833 -10.959409,-0.456641 -2.7919,-0.798121 -5.40725,-2.366368 -7.580259,-4.292436 -1.726916,-1.530669 -3.10898,-3.491708 -4.109779,-5.571032 -1.735797,-3.606402 -2.665226,-7.620572 -3.105165,-11.598709 -0.405242,-3.664383 -0.199525,-7.422877 0.456641,-11.050738 0.66138,-3.656688 1.506929,-5.995303 3.105168,-8.584872 1.278003,-2.070701 3.028289,-3.903498 5.023061,-5.297047 2.392145,-1.671154 5.193947,-2.812663 8.036901,-3.47048 3.14737,-0.728253 6.506273,-1.055473 9.680811,-0.456642 3.37459,0.636568 6.732871,2.046337 9.406827,4.201107 2.560164,2.063072 4.432782,4.976348 5.845019,7.945573 1.458865,3.067259 2.212539,6.484478 2.557195,9.863468 0.368074,3.608572 0.102788,7.299637 -0.54797,10.86808 -0.303992,1.666945 -1.552583,4.840407 -1.552583,4.840407 l 6.484315,6.849631 c 0,0 2.673078,-4.542875 3.470482,-7.032289 1.270227,-3.965521 2.12544,-8.166965 2.009224,-12.329335 -0.14183,-5.079781 -1.224219,-10.24263 -3.287823,-14.886532 -1.10799,-2.493402 -2.830082,-4.727347 -4.749078,-6.666973 -1.854363,-1.874298 -4.050504,-3.447614 -6.392987,-4.657749 -3.737659,-1.930888 -7.807149,-3.371291 -11.964024,-4.01845 -3.971075,-0.618233 -8.111655,-0.591242 -12.05535,0.182656 -4.105126,0.805577 -8.19394,2.268959 -11.690035,4.566421 -3.615953,2.376227 -6.956905,5.484268 -9.132842,9.22417 -2.607646,4.481904 -3.925675,9.799884 -4.201107,14.977858 -0.262388,4.932741 0.461881,10.097591 2.465867,14.612546 2.092784,4.715015 5.464152,9.049462 9.589483,12.14668 3.625707,2.72211 8.171248,4.159212 12.603321,5.11439 3.812126,0.82157 7.807558,0.822198 11.690038,0.456644 3.639322,-0.34266 10.685422,-2.465869 10.685422,-2.465869 z"
       id="path10283"
       sodipodi:nodetypes="cssssssaaaaasssccssssaaaaassssscc" /><path
       style="fill:url(#linearGradient10292);fill-opacity:1;stroke:#535a6a;stroke-width:1.00012;stroke-opacity:0"
       d="m 43.380995,47.034132 c -0.135541,-0.176768 1.643912,-3.927121 1.643912,-3.927121 0,0 3.726083,-1.458249 3.897603,-1.3042 0.171519,0.154049 0.25784,3.553162 0.25784,3.553162 l 7.979819,8.76182 -2.35782,2.140509 -7.893792,-8.893106 c 0,0 -3.392021,-0.154296 -3.527562,-0.331064 z"
       id="path10284"
       sodipodi:nodetypes="zczccccz" /><path
       style="fill:url(#linearGradient10294);fill-opacity:1;stroke:#535a6a;stroke-width:1.00012;stroke-opacity:0"
       d="m 47.844672,62.171817 c 4.721604,-4.101563 15.69345,-13.68514 16.735119,-14.496092 0.480299,0.607006 1.300967,1.620152 2.03287,2.452157 -3.794724,2.241535 -13.836945,10.939771 -16.701683,14.075991 -0.831957,-0.79913 -1.162399,-1.214975 -2.066306,-2.032056 z"
       id="path10285"
       sodipodi:nodetypes="ccccc" /><path
       style="fill:url(#linearGradient10296);fill-opacity:1;stroke:#535a6a;stroke-width:1.00012;stroke-opacity:0"
       d="m 55.122161,61.410536 c 3.726762,-3.214745 3.812808,-3.31526 3.812808,-3.31526 l 10.052867,11.780353 c 0,0 10.692473,12.755214 10.673371,13.05057 -0.0191,0.295356 -7.259781,-2.299188 -8.619455,-2.980599 C 70.272453,79.560061 57.24963,63.64663 55.122161,61.410536 Z"
       id="path10286"
       sodipodi:nodetypes="ccczsc" /><path
       style="fill:url(#linearGradient10298);fill-opacity:1;stroke:#535a6a;stroke-width:1.00012;stroke-opacity:0"
       d="m 80.214542,82.254822 c 0.343913,-0.07084 -1.048964,-7.705404 -1.2345,-8.796279 C 78.862589,72.767969 62.028071,55.34415 62.028071,55.34415 l -3.150994,2.786184 9.882078,11.922514 c 0,0 11.111474,12.272816 11.455387,12.201974 z"
       id="path10287"
       sodipodi:nodetypes="zscccz" /></g></svg>
