<?xml version="1.0" encoding="UTF-8" standalone="no"?>
<!-- Created with Inkscape (http://www.inkscape.org/) -->

<svg
   width="100mm"
   height="100mm"
   viewBox="0 0 100 100"
   version="1.1"
   id="svg1"
   xml:space="preserve"
   sodipodi:docname="icon_transparent.svg"
   inkscape:version="1.3 (0e150ed6c4, 2023-07-21)"
   xmlns:inkscape="http://www.inkscape.org/namespaces/inkscape"
   xmlns:sodipodi="http://sodipodi.sourceforge.net/DTD/sodipodi-0.dtd"
   xmlns:xlink="http://www.w3.org/1999/xlink"
   xmlns="http://www.w3.org/2000/svg"
   xmlns:svg="http://www.w3.org/2000/svg"><sodipodi:namedview
     id="namedview1"
     pagecolor="#505050"
     bordercolor="#eeeeee"
     borderopacity="1"
     inkscape:showpageshadow="0"
     inkscape:pageopacity="0"
     inkscape:pagecheckerboard="0"
     inkscape:deskcolor="#505050"
     inkscape:document-units="mm"
     inkscape:zoom="2.1510625"
     inkscape:cx="188.74393"
     inkscape:cy="188.97638"
     inkscape:window-width="1920"
     inkscape:window-height="1009"
     inkscape:window-x="-8"
     inkscape:window-y="-8"
     inkscape:window-maximized="1"
     inkscape:current-layer="layer1" /><defs
     id="defs1"><linearGradient
       id="linearGradient10297"
       inkscape:collect="always"><stop
         style="stop-color:#f98007;stop-opacity:1;"
         offset="0"
         id="stop10297" /><stop
         style="stop-color:#faa805;stop-opacity:1;"
         offset="0.50409865"
         id="stop10299" /><stop
         style="stop-color:#fccc00;stop-opacity:1;"
         offset="0.66252053"
         id="stop10301" /><stop
         style="stop-color:#f9c729;stop-opacity:1;"
         offset="0.79474097"
         id="stop10300" /><stop
         style="stop-color:#f99c07;stop-opacity:1;"
         offset="1"
         id="stop10298" /></linearGradient><linearGradient
       id="linearGradient10295"
       inkscape:collect="always"><stop
         style="stop-color:#f90707;stop-opacity:1;"
         offset="0"
         id="stop10295" /><stop
         style="stop-color:#f98907;stop-opacity:1;"
         offset="1"
         id="stop10296" /></linearGradient><linearGradient
       id="linearGradient10293"
       inkscape:collect="always"><stop
         style="stop-color:#ffac14;stop-opacity:1;"
         offset="0"
         id="stop10293" /><stop
         style="stop-color:#ff3212;stop-opacity:1;"
         offset="1"
         id="stop10294" /></linearGradient><linearGradient
       id="linearGradient10291"
       inkscape:collect="always"><stop
         style="stop-color:#f98007;stop-opacity:1;"
         offset="0"
         id="stop10291" /><stop
         style="stop-color:#f9bf07;stop-opacity:1;"
         offset="1"
         id="stop10292" /></linearGradient><linearGradient
       id="linearGradient10289"
       inkscape:collect="always"><stop
         style="stop-color:#ff4212;stop-opacity:1;"
         offset="0"
         id="stop10289" /><stop
         style="stop-color:#ff8913;stop-opacity:1;"
         offset="1"
         id="stop10290" /></linearGradient><linearGradient
       inkscape:collect="always"
       xlink:href="#linearGradient10289"
       id="linearGradient10290"
       x1="31.416973"
       y1="73.79335"
       x2="56.806271"
       y2="35.435425"
       gradientUnits="userSpaceOnUse"
       gradientTransform="matrix(1.3444646,0,0,1.3444646,-16.692833,-15.196845)" /><linearGradient
       inkscape:collect="always"
       xlink:href="#linearGradient10291"
       id="linearGradient10292"
       x1="47.400944"
       y1="47.271786"
       x2="49.725784"
       y2="43.267891"
       gradientUnits="userSpaceOnUse"
       gradientTransform="matrix(1.3444646,0,0,1.3444646,-16.692833,-15.196845)" /><linearGradient
       inkscape:collect="always"
       xlink:href="#linearGradient10293"
       id="linearGradient10294"
       x1="63.158203"
       y1="51.275673"
       x2="49.596626"
       y2="62.770729"
       gradientUnits="userSpaceOnUse"
       gradientTransform="matrix(1.3444646,0,0,1.3444646,-16.692833,-15.196845)" /><linearGradient
       inkscape:collect="always"
       xlink:href="#linearGradient10295"
       id="linearGradient10296"
       x1="65.99968"
       y1="73.361679"
       x2="69.475853"
       y2="70.485626"
       gradientUnits="userSpaceOnUse"
       gradientTransform="matrix(1.3444646,0,0,1.3444646,-16.692833,-15.196845)" /><linearGradient
       inkscape:collect="always"
       xlink:href="#linearGradient10297"
       id="linearGradient10298"
       x1="75.073013"
       y1="76.493759"
       x2="78.810562"
       y2="74.542061"
       gradientUnits="userSpaceOnUse"
       gradientTransform="matrix(1.3444646,0,0,1.3444646,-16.692833,-15.196845)" /></defs><g
     inkscape:label="Layer 1"
     inkscape:groupmode="layer"
     id="layer1"><path
       style="fill:url(#linearGradient10290);fill-opacity:1;stroke:#535a6a;stroke-width:1.34463;stroke-opacity:0"
       d="m 64.224338,80.332077 c 0,0 -5.931619,2.515241 -9.086299,2.946906 -4.87039,0.666435 -10.008098,0.737212 -14.734538,-0.613936 -3.75361,-1.073046 -7.269855,-3.181499 -10.191389,-5.771029 -2.321778,-2.05793 -4.179913,-4.694478 -5.525453,-7.490055 -2.333717,-4.84868 -3.583302,-10.24559 -4.174784,-15.594055 -0.544834,-4.926632 -0.268254,-9.979794 0.613937,-14.857325 0.889203,-4.916287 2.026013,-8.060473 4.17479,-11.542057 1.718229,-2.783984 4.071427,-5.248115 6.753327,-7.121691 3.216154,-2.246808 6.983078,-3.781526 10.805329,-4.665938 4.231528,-0.979111 8.747455,-1.419046 13.015508,-0.613939 4.537017,0.855843 9.052107,2.751228 12.647145,5.648239 3.44205,2.773728 5.95972,6.690524 7.858422,10.682542 1.961392,4.123822 2.97468,8.718152 3.438059,13.261084 0.494862,4.851596 0.138192,9.814103 -0.736727,14.611748 -0.408706,2.241148 -2.087393,6.507755 -2.087393,6.507755 l 8.717931,9.209087 c 0,0 3.593859,-6.107735 4.66594,-9.454663 1.707776,-5.331502 2.857579,-10.980195 2.701332,-16.576354 C 92.88879,42.068809 91.433555,35.127542 88.659113,28.883979 87.16946,25.531689 84.854167,22.528229 82.274146,19.920471 79.781021,17.400544 76.828386,15.285276 73.679001,13.658292 68.653851,11.062282 63.182566,9.1257111 57.593793,8.2556286 52.254825,7.4244363 46.687961,7.4607247 41.385802,8.5012033 35.866606,9.584273 30.369341,11.551738 25.668964,14.640595 c -4.861521,3.194753 -9.353311,7.373404 -12.278783,12.40157 -3.5058882,6.025761 -5.2779312,13.175596 -5.6482392,20.1372 -0.352772,6.631894 0.620982,13.575853 3.3152702,19.646051 2.813674,6.33917 7.34636,12.16668 12.892722,16.330781 4.874635,3.659781 10.985953,5.591913 16.944718,6.876116 5.125269,1.104572 10.496986,1.105417 15.716842,0.613942 4.89294,-0.460695 14.366172,-3.315273 14.366172,-3.315273 z"
       id="path10283"
       sodipodi:nodetypes="cssssssaaaaasssccssssaaaaassssscc" /><path
       style="fill:url(#linearGradient10292);fill-opacity:1;stroke:#535a6a;stroke-width:1.34463;stroke-opacity:0"
       d="m 41.631378,48.038881 c -0.18223,-0.237658 2.210183,-5.279875 2.210183,-5.279875 0,0 5.009586,-1.960565 5.240188,-1.753452 0.230602,0.207113 0.346657,4.777101 0.346657,4.777101 l 10.728585,11.779956 -3.170005,2.87784 -10.612925,-11.956467 c 0,0 -4.560452,-0.207445 -4.742683,-0.445103 z"
       id="path10284"
       sodipodi:nodetypes="zczccccz" /><path
       style="fill:url(#linearGradient10294);fill-opacity:1;stroke:#535a6a;stroke-width:1.34463;stroke-opacity:0"
       d="m 47.632634,68.390963 c 6.348029,-5.514407 21.099288,-18.399187 22.499775,-19.489484 0.645746,0.816098 1.749105,2.178237 2.733123,3.296839 C 67.76366,55.211983 54.262248,66.906453 50.410709,71.12299 49.292173,70.048588 48.847906,69.489498 47.632634,68.390963 Z"
       id="path10285"
       sodipodi:nodetypes="ccccc" /><path
       style="fill:url(#linearGradient10296);fill-opacity:1;stroke:#535a6a;stroke-width:1.34463;stroke-opacity:0"
       d="m 57.416961,67.367448 c 5.010499,-4.322113 5.126185,-4.45725 5.126185,-4.45725 L 76.05887,78.748465 c 0,0 14.375652,17.148934 14.34997,17.54603 C 90.38316,96.69159 80.648321,93.203317 78.820288,92.287185 77.785992,91.76884 60.277268,70.373796 57.416961,67.367448 Z"
       id="path10286"
       sodipodi:nodetypes="ccczsc" /><path
       style="fill:url(#linearGradient10298);fill-opacity:1;stroke:#535a6a;stroke-width:1.34463;stroke-opacity:0"
       d="M 91.15278,95.391852 C 91.615158,95.29661 89.742483,85.032208 89.493037,83.565565 89.335127,82.637113 66.701711,59.211406 66.701711,59.211406 l -4.236399,3.745925 13.286105,16.029399 c 0,0 14.938983,16.500367 15.401363,16.405122 z"
       id="path10287"
       sodipodi:nodetypes="zscccz" /></g></svg>
